<svg id="Design" xmlns="http://www.w3.org/2000/svg" viewBox="0 0 95.27 92.22"><defs><style>.cls-1{fill:#fff;}</style></defs><title>favicon</title><rect class="cls-1" x="49.31" y="63.16" width="1.41" height="1.41"/><rect class="cls-1" x="49.31" y="64.98" width="1.41" height="1.41"/><rect class="cls-1" x="49.31" y="61.35" width="1.41" height="1.41"/><rect class="cls-1" x="49.31" y="66.8" width="1.41" height="1.41"/><rect class="cls-1" x="49.31" y="59.53" width="1.41" height="1.41"/><rect class="cls-1" x="49.31" y="72.24" width="1.41" height="1.41"/><rect class="cls-1" x="49.31" y="75.87" width="1.41" height="1.41"/><rect class="cls-1" x="49.31" y="79.51" width="1.41" height="1.41"/><rect class="cls-1" x="49.31" y="77.69" width="1.41" height="1.41"/><rect class="cls-1" x="49.3" y="57.71" width="1.41" height="1.41"/><rect class="cls-1" x="49.31" y="70.43" width="1.41" height="1.41"/><rect class="cls-1" x="51.22" y="57.72" width="1.41" height="1.41"/><rect class="cls-1" x="49.31" y="74.06" width="1.41" height="1.41"/><rect class="cls-1" x="48.2" y="42.68" width="1.41" height="1.41"/><rect class="cls-1" x="47.75" y="40.66" width="1.41" height="1.41"/><rect class="cls-1" x="47.18" y="38.59" width="1.41" height="1.41"/><rect class="cls-1" x="46.48" y="36.47" width="1.41" height="1.41"/><rect class="cls-1" x="48.55" y="44.66" width="1.41" height="1.41"/><rect class="cls-1" x="49" y="48.5" width="1.41" height="1.41"/><rect class="cls-1" x="45.63" y="34.28" width="1.41" height="1.41"/><rect class="cls-1" x="49.21" y="52.23" width="1.41" height="1.41"/><rect class="cls-1" x="49.26" y="54.07" width="1.41" height="1.41"/><rect class="cls-1" x="49.13" y="50.37" width="1.41" height="1.41"/><rect class="cls-1" x="49.29" y="55.89" width="1.41" height="1.41"/><rect class="cls-1" x="48.81" y="46.59" width="1.41" height="1.41"/><rect class="cls-1" x="50.31" y="42.77" width="1.41" height="1.41"/><rect class="cls-1" x="50.82" y="46.64" width="1.41" height="1.41"/><rect class="cls-1" x="49.92" y="40.78" width="1.41" height="1.41"/><rect class="cls-1" x="50.6" y="44.72" width="1.41" height="1.41"/><rect class="cls-1" x="49.44" y="38.75" width="1.41" height="1.41"/><rect class="cls-1" x="48.84" y="36.67" width="1.41" height="1.41"/><rect class="cls-1" x="51.19" y="54.07" width="1.41" height="1.41"/><rect class="cls-1" x="51.21" y="55.9" width="1.41" height="1.41"/><rect class="cls-1" x="48.12" y="34.54" width="1.41" height="1.41"/><rect class="cls-1" x="51.08" y="50.39" width="1.41" height="1.41"/><rect class="cls-1" x="50.98" y="48.53" width="1.41" height="1.41"/><rect class="cls-1" x="51.15" y="52.24" width="1.41" height="1.41"/><rect class="cls-1" x="36.87" y="14.97" width="1.41" height="1.41"/><rect class="cls-1" x="49.31" y="81.32" width="1.41" height="1.41"/><rect class="cls-1" x="38.22" y="16.93" width="1.41" height="1.41"/><rect class="cls-1" x="35.81" y="13.55" width="1.41" height="1"/><rect class="cls-1" x="49.31" y="83.14" width="1.41" height="1.41"/><rect class="cls-1" x="49.31" y="84.95" width="1.41" height="1.41"/><rect class="cls-1" x="39.66" y="19.01" width="1.41" height="1.41"/><rect class="cls-1" x="41.13" y="21.17" width="1.41" height="1.41"/><rect class="cls-1" x="45.16" y="27.9" width="1.41" height="1.41"/><rect class="cls-1" x="47.27" y="32.36" width="1.41" height="1.41"/><rect class="cls-1" x="46.28" y="30.15" width="1.41" height="1.41"/><rect class="cls-1" x="42.56" y="23.39" width="1.41" height="1.41"/><rect class="cls-1" x="43.92" y="25.65" width="1.41" height="1.41"/><rect class="cls-1" x="49.31" y="68.61" width="1.41" height="1.41"/><rect class="cls-1" x="46.49" y="44.6" width="1.41" height="1.41"/><rect class="cls-1" x="46.09" y="42.6" width="1.41" height="1.41"/><rect class="cls-1" x="46.8" y="46.55" width="1.41" height="1.41"/><rect class="cls-1" x="47.02" y="48.47" width="1.41" height="1.41"/><rect class="cls-1" x="44.92" y="38.44" width="1.41" height="1.41"/><rect class="cls-1" x="45.57" y="40.55" width="1.41" height="1.41"/><rect class="cls-1" x="47.27" y="52.21" width="1.41" height="1.41"/><rect class="cls-1" x="47.36" y="55.89" width="1.41" height="1.41"/><rect class="cls-1" x="47.38" y="57.71" width="1.41" height="1.41"/><rect class="cls-1" x="47.33" y="54.06" width="1.41" height="1.41"/><rect class="cls-1" x="44.11" y="36.26" width="1.41" height="1.41"/><rect class="cls-1" x="47.17" y="50.35" width="1.41" height="1.41"/><rect class="cls-1" x="28.81" y="14.35" width="1.41" height="1.41"/><rect class="cls-1" x="47.39" y="59.53" width="1.41" height="1.41"/><rect class="cls-1" x="30.99" y="16.9" width="1.41" height="1.41"/><rect class="cls-1" x="26.75" y="11.8" width="1.41" height="1.41"/><rect class="cls-1" x="44.62" y="32.04" width="1.41" height="1.41"/><rect class="cls-1" x="43.13" y="34.02" width="1.41" height="1.41"/><rect class="cls-1" x="33.19" y="19.44" width="1.41" height="1.41"/><rect class="cls-1" x="35.29" y="21.96" width="1.41" height="1.41"/><rect class="cls-1" x="41.96" y="31.72" width="1.41" height="1.41"/><rect class="cls-1" x="40.6" y="29.35" width="1.41" height="1.41"/><rect class="cls-1" x="39.03" y="26.93" width="1.41" height="1.41"/><rect class="cls-1" x="37.25" y="24.46" width="1.41" height="1.41"/><rect class="cls-1" x="25.15" y="9.77" width="1.41" height="1"/><rect class="cls-1" x="30.65" y="11.95" width="1.41" height="1"/><rect class="cls-1" x="31.95" y="13.62" width="1.41" height="1.41"/><rect class="cls-1" x="35.41" y="18.06" width="1.41" height="1.41"/><rect class="cls-1" x="33.62" y="15.8" width="1.41" height="1.41"/><rect class="cls-1" x="47.39" y="86.77" width="1.41" height="1.41"/><rect class="cls-1" x="47.39" y="84.95" width="1.41" height="1.41"/><rect class="cls-1" x="47.39" y="61.35" width="1.41" height="1.41"/><rect class="cls-1" x="43.45" y="29.76" width="1.41" height="1.41"/><rect class="cls-1" x="42.11" y="27.43" width="1.41" height="1.41"/><rect class="cls-1" x="47.39" y="83.14" width="1.41" height="1.41"/><rect class="cls-1" x="38.97" y="22.71" width="1.41" height="1.41"/><rect class="cls-1" x="37.22" y="20.37" width="1.41" height="1.41"/><rect class="cls-1" x="40.61" y="25.07" width="1.41" height="1.41"/><rect class="cls-1" x="47.39" y="66.8" width="1.41" height="1.41"/><rect class="cls-1" x="47.39" y="68.61" width="1.41" height="1.41"/><rect class="cls-1" x="47.39" y="63.16" width="1.41" height="1.41"/><rect class="cls-1" x="47.39" y="70.43" width="1.41" height="1.41"/><rect class="cls-1" x="47.39" y="64.98" width="1.41" height="1.41"/><rect class="cls-1" x="47.39" y="79.51" width="1.41" height="1.41"/><rect class="cls-1" x="47.39" y="72.24" width="1.41" height="1.41"/><rect class="cls-1" x="47.39" y="81.32" width="1.41" height="1.41"/><rect class="cls-1" x="47.39" y="77.69" width="1.41" height="1.41"/><rect class="cls-1" x="47.39" y="75.87" width="1.41" height="1.41"/><rect class="cls-1" x="47.39" y="74.06" width="1.41" height="1.41"/><rect class="cls-1" x="51.23" y="79.51" width="1.41" height="1.41"/><rect class="cls-1" x="33.96" y="81.32" width="1.41" height="1.41"/><rect class="cls-1" x="33.96" y="88.58" width="1.41" height="1.41"/><rect class="cls-1" x="33.96" y="86.77" width="1.41" height="1.41"/><rect class="cls-1" x="22.46" y="81.32" width="1.41" height="1.41"/><rect class="cls-1" x="33.96" y="84.95" width="1.41" height="1.41"/><rect class="cls-1" x="33.96" y="83.14" width="1.41" height="1.41"/><rect class="cls-1" x="33.96" y="90.4" width="1.41" height="1.41"/><path class="cls-1" d="M119.83,181.61c.29.17.59.33.89.49h.52v-1.41h-1.41Z" transform="translate(-93.53 -92.1)"/><rect class="cls-1" x="22.46" y="84.95" width="1.41" height="1.41"/><rect class="cls-1" x="22.46" y="83.14" width="1.41" height="1.41"/><path class="cls-1" d="M117.4,180v-1.1h-1.27C116.55,179.25,117,179.63,117.4,180Z" transform="translate(-93.53 -92.1)"/><path class="cls-1" d="M119.32,181.32v-.63h-.91C118.72,180.9,119,181.13,119.32,181.32Z" transform="translate(-93.53 -92.1)"/><polygon class="cls-1" points="27.7 75.47 27.7 74.72 26.95 75.47 27.7 75.47"/><path class="cls-1" d="M125.58,169v.35H126Z" transform="translate(-93.53 -92.1)"/><rect class="cls-1" x="33.96" y="79.51" width="1.41" height="1.41"/><rect class="cls-1" x="30.13" y="86.77" width="1.41" height="1.41"/><path class="cls-1" d="M125.58,169.79v1.41H127V170l-.32-.17Z" transform="translate(-93.53 -92.1)"/><rect class="cls-1" x="30.13" y="88.58" width="1.41" height="1.41"/><rect class="cls-1" x="30.13" y="84.95" width="1.41" height="1.41"/><rect class="cls-1" x="32.05" y="79.51" width="1.41" height="1.41"/><rect class="cls-1" x="32.05" y="81.32" width="1.41" height="1.41"/><rect class="cls-1" x="32.05" y="86.77" width="1.41" height="1.41"/><path class="cls-1" d="M127.5,171.2h1.41v-.79a4.45,4.45,0,0,1-1.41-.25Z" transform="translate(-93.53 -92.1)"/><rect class="cls-1" x="32.05" y="84.95" width="1.41" height="1.41"/><rect class="cls-1" x="32.05" y="83.14" width="1.41" height="1.41"/><polygon class="cls-1" points="24.38 78.07 24.38 79.1 25.79 79.1 25.79 77.69 24.75 77.69 24.38 78.07"/><polygon class="cls-1" points="21.95 80.92 21.95 80.51 21.55 80.92 21.95 80.92"/><path class="cls-1" d="M115.48,178.28v-1.22H114.3C114.69,177.48,115.08,177.9,115.48,178.28Z" transform="translate(-93.53 -92.1)"/><rect class="cls-1" x="26.29" y="84.95" width="1.41" height="1.41"/><rect class="cls-1" x="26.29" y="81.32" width="1.41" height="1.41"/><rect class="cls-1" x="20.54" y="83.14" width="1.41" height="1.41"/><rect class="cls-1" x="26.29" y="83.14" width="1.41" height="1.41"/><rect class="cls-1" x="26.29" y="86.77" width="1.41" height="1.41"/><path class="cls-1" d="M146.68,165.76h1.13v-1.41h-1.13Z" transform="translate(-93.53 -92.1)"/><rect class="cls-1" x="40.46" y="14.53" width="1.14" height="1"/><polygon class="cls-1" points="19.23 83.25 20.03 84.16 20.03 83.14 19.34 83.14 19.23 83.25"/><polygon class="cls-1" points="20.03 82.73 20.03 82.44 19.74 82.73 20.03 82.73"/><polygon class="cls-1" points="20.54 81.93 20.54 82.73 21.95 82.73 21.95 81.32 21.14 81.32 20.54 81.93"/><rect class="cls-1" x="26.29" y="77.69" width="1.41" height="1.41"/><rect class="cls-1" x="24.37" y="86.77" width="1.41" height="1.41"/><rect class="cls-1" x="24.37" y="83.14" width="1.41" height="1.41"/><rect class="cls-1" x="24.37" y="81.32" width="1.41" height="1.41"/><rect class="cls-1" x="24.37" y="79.51" width="1.41" height="1.41"/><polygon class="cls-1" points="22.46 80 22.46 80.92 23.87 80.92 23.87 79.51 22.95 79.51 22.46 80"/><polygon class="cls-1" points="23.87 79.1 23.87 78.58 23.35 79.1 23.87 79.1"/><rect class="cls-1" x="26.29" y="79.51" width="1.41" height="1.41"/><rect class="cls-1" x="24.37" y="84.95" width="1.41" height="1.41"/><polygon class="cls-1" points="26.29 76.14 26.29 77.28 27.7 77.28 27.7 75.87 26.55 75.87 26.29 76.14"/><polygon class="cls-1" points="25.79 77.28 25.79 76.65 25.15 77.28 25.79 77.28"/><rect class="cls-1" x="30.13" y="83.14" width="1.41" height="1.41"/><rect class="cls-1" x="51.23" y="77.69" width="1.41" height="1.41"/><rect class="cls-1" x="35.88" y="83.14" width="1.41" height="1.41"/><path class="cls-1" d="M129.42,171.2h1.4v-1a5,5,0,0,1-1.4.25Z" transform="translate(-93.53 -92.1)"/><rect class="cls-1" x="35.88" y="81.32" width="1.41" height="1.41"/><rect class="cls-1" x="35.88" y="79.51" width="1.41" height="1.41"/><rect class="cls-1" x="45.47" y="84.95" width="1.41" height="1.41"/><path class="cls-1" d="M130.19,184.32h0Z" transform="translate(-93.53 -92.1)"/><rect class="cls-1" x="37.8" y="83.14" width="1.41" height="1.41"/><rect class="cls-1" x="37.8" y="81.32" width="1.41" height="1.41"/><rect class="cls-1" x="37.8" y="79.51" width="1.41" height="1.41"/><rect class="cls-1" x="35.88" y="86.77" width="1.41" height="1.41"/><rect class="cls-1" x="35.88" y="88.58" width="1.41" height="1.41"/><rect class="cls-1" x="35.88" y="84.95" width="1.41" height="1.41"/><rect class="cls-1" x="35.88" y="90.4" width="1.41" height="1.41"/><rect class="cls-1" x="51.23" y="66.8" width="1.41" height="1.41"/><rect class="cls-1" x="51.23" y="64.98" width="1.41" height="1.41"/><rect class="cls-1" x="51.23" y="68.61" width="1.41" height="1.41"/><rect class="cls-1" x="51.23" y="63.16" width="1.41" height="1.41"/><rect class="cls-1" x="51.23" y="61.35" width="1.41" height="1.41"/><rect class="cls-1" x="30.13" y="81.32" width="1.41" height="1.41"/><rect class="cls-1" x="51.23" y="81.32" width="1.41" height="1.41"/><rect class="cls-1" x="51.23" y="70.43" width="1.41" height="1.41"/><rect class="cls-1" x="51.23" y="75.87" width="1.41" height="1.41"/><rect class="cls-1" x="51.23" y="74.06" width="1.41" height="1.41"/><rect class="cls-1" x="51.23" y="72.24" width="1.41" height="1.41"/><rect class="cls-1" x="51.23" y="59.53" width="1.41" height="1.41"/><rect class="cls-1" x="28.21" y="88.58" width="1.41" height="1.41"/><rect class="cls-1" x="28.21" y="79.51" width="1.41" height="1.41"/><rect class="cls-1" x="28.21" y="86.77" width="1.41" height="1.41"/><rect class="cls-1" x="28.21" y="83.14" width="1.41" height="1.41"/><polygon class="cls-1" points="28.36 74.06 28.21 74.21 28.21 75.47 29.62 75.47 29.62 74.4 29.33 74.06 28.36 74.06"/><rect class="cls-1" x="28.21" y="81.32" width="1.41" height="1.41"/><rect class="cls-1" x="28.21" y="84.95" width="1.41" height="1.41"/><rect class="cls-1" x="30.13" y="77.69" width="1.41" height="1.41"/><rect class="cls-1" x="30.13" y="79.51" width="1.41" height="1.41"/><path class="cls-1" d="M123.66,168v1.41h1.41v-.79c-.21-.19-.42-.4-.63-.62Z" transform="translate(-93.53 -92.1)"/><path class="cls-1" d="M123.66,167.11h0v.46h.42C123.94,167.42,123.8,167.28,123.66,167.11Z" transform="translate(-93.53 -92.1)"/><polygon class="cls-1" points="28.89 73.53 28.76 73.65 28.99 73.65 28.89 73.53"/><path class="cls-1" d="M132.74,167.57v-.14l0,.14Z" transform="translate(-93.53 -92.1)"/><path class="cls-1" d="M131.33,169.9v1.3h1.41v-1.41h-1.25A1.11,1.11,0,0,1,131.33,169.9Z" transform="translate(-93.53 -92.1)"/><rect class="cls-1" x="37.8" y="88.58" width="1.41" height="1.41"/><rect class="cls-1" x="37.8" y="84.95" width="1.41" height="1.41"/><rect class="cls-1" x="28.21" y="77.69" width="1.41" height="1.41"/><rect class="cls-1" x="37.8" y="86.77" width="1.41" height="1.41"/><rect class="cls-1" x="37.8" y="90.4" width="1.41" height="1.41"/><path class="cls-1" d="M121.74,182.6c.47.2.93.4,1.42.57v-.67h-1.42Z" transform="translate(-93.53 -92.1)"/><path class="cls-1" d="M132.14,169.1c-.06.09-.13.19-.21.29h.81V168h-.14A4.83,4.83,0,0,1,132.14,169.1Z" transform="translate(-93.53 -92.1)"/><rect class="cls-1" x="28.21" y="75.87" width="1.41" height="1.41"/><path class="cls-1" d="M123.66,183.33q.69.22,1.41.39V182.5h-1.41Z" transform="translate(-93.53 -92.1)"/><path class="cls-1" d="M125.58,183.85l.39.06h1V182.5h-1.41Z" transform="translate(-93.53 -92.1)"/><rect class="cls-1" x="32.05" y="88.58" width="1.41" height="1.41"/><rect class="cls-1" x="39.71" y="59.53" width="1.41" height="1.41"/><rect class="cls-1" x="39.72" y="61.35" width="1.41" height="1.41"/><rect class="cls-1" x="39.7" y="57.71" width="1.41" height="1.41"/><rect class="cls-1" x="39.72" y="63.16" width="1.41" height="1.41"/><rect class="cls-1" x="39.67" y="55.88" width="1.41" height="1.41"/><rect class="cls-1" x="24.6" y="22.07" width="1.41" height="1.41"/><rect class="cls-1" x="39.51" y="52.17" width="1.41" height="1.41"/><rect class="cls-1" x="39.72" y="72.24" width="1.41" height="1.41"/><rect class="cls-1" x="39.72" y="64.98" width="1.41" height="1.41"/><rect class="cls-1" x="39.72" y="70.43" width="1.41" height="1.41"/><rect class="cls-1" x="39.72" y="74.06" width="1.41" height="1.41"/><rect class="cls-1" x="39.72" y="68.61" width="1.41" height="1.41"/><rect class="cls-1" x="39.72" y="66.8" width="1.41" height="1.41"/><rect class="cls-1" x="33.56" y="33.16" width="1.41" height="1.41"/><rect class="cls-1" x="31.85" y="30.61" width="1.41" height="1.41"/><rect class="cls-1" x="36.14" y="37.93" width="1.41" height="1.41"/><rect class="cls-1" x="34.98" y="35.6" width="1.41" height="1.41"/><rect class="cls-1" x="27.4" y="25.09" width="1.41" height="1.41"/><rect class="cls-1" x="29.8" y="27.92" width="1.41" height="1.41"/><rect class="cls-1" x="37.81" y="42.32" width="1.41" height="1.41"/><rect class="cls-1" x="38.81" y="46.41" width="1.41" height="1.41"/><rect class="cls-1" x="39.13" y="48.37" width="1.41" height="1.41"/><rect class="cls-1" x="39.36" y="50.29" width="1.41" height="1.41"/><rect class="cls-1" x="38.38" y="44.39" width="1.41" height="1.41"/><rect class="cls-1" x="37.07" y="40.17" width="1.41" height="1.41"/><rect class="cls-1" x="39.61" y="54.04" width="1.41" height="1.41"/><rect class="cls-1" x="32.31" y="28.21" width="1.41" height="1.41"/><rect class="cls-1" x="30.07" y="25.46" width="1.41" height="1.41"/><rect class="cls-1" x="34.22" y="30.82" width="1.41" height="1.41"/><rect class="cls-1" x="39.72" y="75.87" width="1.41" height="1.41"/><rect class="cls-1" x="24.55" y="19.52" width="1.41" height="1.41"/><rect class="cls-1" x="35.83" y="33.33" width="1.41" height="1.41"/><rect class="cls-1" x="37.17" y="35.73" width="1.41" height="1.41"/><rect class="cls-1" x="21.26" y="16.25" width="1.41" height="1.41"/><rect class="cls-1" x="40.38" y="44.43" width="1.41" height="1.41"/><rect class="cls-1" x="39.84" y="42.37" width="1.41" height="1.41"/><rect class="cls-1" x="39.14" y="40.24" width="1.41" height="1.41"/><rect class="cls-1" x="38.26" y="38.03" width="1.41" height="1.41"/><rect class="cls-1" x="27.49" y="22.58" width="1.41" height="1.41"/><rect class="cls-1" x="39.72" y="83.14" width="1.41" height="1.41"/><rect class="cls-1" x="17.67" y="12.76" width="1.41" height="1.41"/><rect class="cls-1" x="39.72" y="84.95" width="1.41" height="1.41"/><rect class="cls-1" x="39.72" y="77.69" width="1.41" height="1.41"/><rect class="cls-1" x="39.72" y="79.51" width="1.41" height="1.41"/><rect class="cls-1" x="39.72" y="81.32" width="1.41" height="1.41"/><rect class="cls-1" x="39.72" y="88.58" width="1.41" height="1.41"/><rect class="cls-1" x="13.83" y="9.08" width="1.41" height="1.41"/><rect class="cls-1" x="9.87" y="5.3" width="1.41" height="1.41"/><rect class="cls-1" x="6.44" y="2.2" width="1.41" height="1"/><rect class="cls-1" x="39.72" y="86.77" width="1.41" height="1.41"/><rect class="cls-1" x="49.83" y="32.64" width="1.14" height="1.41"/><rect class="cls-1" x="52.82" y="46.67" width="1.14" height="1.41"/><rect class="cls-1" x="53.04" y="50.4" width="1.14" height="1.41"/><rect class="cls-1" x="52.64" y="44.78" width="1.14" height="1.41"/><rect class="cls-1" x="52.95" y="48.55" width="1.14" height="1.41"/><rect class="cls-1" x="52.07" y="40.88" width="1.14" height="1.41"/><rect class="cls-1" x="52.39" y="42.85" width="1.14" height="1.41"/><rect class="cls-1" x="53.09" y="52.25" width="1.14" height="1.41"/><rect class="cls-1" x="53.14" y="59.53" width="1.14" height="1.41"/><rect class="cls-1" x="51.66" y="38.88" width="1.14" height="1.41"/><rect class="cls-1" x="53.14" y="57.72" width="1.14" height="1.41"/><rect class="cls-1" x="53.14" y="61.35" width="1.14" height="1.41"/><rect class="cls-1" x="53.12" y="54.08" width="1.14" height="1.41"/><rect class="cls-1" x="53.14" y="55.9" width="1.14" height="1.41"/><rect class="cls-1" x="44.75" y="21.82" width="1.14" height="1.41"/><rect class="cls-1" x="45.92" y="23.96" width="1.14" height="1.41"/><rect class="cls-1" x="43.56" y="19.74" width="1.14" height="1.41"/><rect class="cls-1" x="41.31" y="15.87" width="1.14" height="1.41"/><rect class="cls-1" x="42.39" y="17.74" width="1.14" height="1.41"/><rect class="cls-1" x="49" y="30.49" width="1.14" height="1.41"/><rect class="cls-1" x="50.55" y="34.76" width="1.14" height="1.41"/><rect class="cls-1" x="40.79" y="46.43" width="1.41" height="1.41"/><rect class="cls-1" x="47.03" y="26.13" width="1.14" height="1.41"/><rect class="cls-1" x="21.39" y="18.85" width="1.41" height="1.41"/><rect class="cls-1" x="48.07" y="28.32" width="1.14" height="1.41"/><rect class="cls-1" x="51.15" y="36.84" width="1.14" height="1.41"/><path class="cls-1" d="M137.09,183.41c.48-.14,1-.3,1.41-.48v-.43h-1.41Z" transform="translate(-93.53 -92.1)"/><path class="cls-1" d="M139,182.73c.17-.08.36-.14.54-.23H139Z" transform="translate(-93.53 -92.1)"/><path class="cls-1" d="M135.17,183.87c.48-.09,1-.19,1.41-.31V182.5h-1.41Z" transform="translate(-93.53 -92.1)"/><path class="cls-1" d="M140.92,181.75a12,12,0,0,0,1.41-1v-.05h-1.41Z" transform="translate(-93.53 -92.1)"/><path class="cls-1" d="M139,182.1h1.28l.12-.07v-1.34H139Z" transform="translate(-93.53 -92.1)"/><rect class="cls-1" x="39.72" y="90.4" width="1.41" height="1.41"/><path class="cls-1" d="M142.84,180.27c.22-.2.45-.4.65-.61s.44-.52.65-.79h-1.3Z" transform="translate(-93.53 -92.1)"/><rect class="cls-1" width="1.41" height="1"/><rect class="cls-1" x="17.76" y="15.37" width="1.41" height="1.41"/><rect class="cls-1" x="13.69" y="11.62" width="1.41" height="1.41"/><rect class="cls-1" x="4.4" y="3.49" width="1.41" height="1.41"/><rect class="cls-1" x="9.22" y="7.63" width="1.41" height="1.41"/><path class="cls-1" d="M146.68,171.2h.66c.08-.46.16-.92.22-1.41h-.88Z" transform="translate(-93.53 -92.1)"/><rect class="cls-1" x="53.14" y="68.61" width="1.14" height="1.41"/><rect class="cls-1" x="53.14" y="70.43" width="1.14" height="1.41"/><path class="cls-1" d="M146.68,167.57h1.07c0-.46,0-.93.05-1.41h-1.12Z" transform="translate(-93.53 -92.1)"/><rect class="cls-1" x="53.14" y="64.98" width="1.14" height="1.41"/><rect class="cls-1" x="53.14" y="66.8" width="1.14" height="1.41"/><path class="cls-1" d="M146.68,174l.15-.55h-.15Z" transform="translate(-93.53 -92.1)"/><path class="cls-1" d="M144.76,178c.21-.31.42-.62.61-1h-.61Z" transform="translate(-93.53 -92.1)"/><path class="cls-1" d="M144.76,176.65h.81c.21-.41.42-.82.6-1.27v-.14h-1.41Z" transform="translate(-93.53 -92.1)"/><path class="cls-1" d="M146.68,169.39h.92c.05-.47.1-.93.14-1.41h-1.06Z" transform="translate(-93.53 -92.1)"/><path class="cls-1" d="M146.68,173h.26q.18-.69.33-1.41h-.59Z" transform="translate(-93.53 -92.1)"/><rect class="cls-1" x="53.14" y="63.16" width="1.14" height="1.41"/><rect class="cls-1" x="43.55" y="70.43" width="1.41" height="1.41"/><rect class="cls-1" x="26.49" y="15.55" width="1.41" height="1.41"/><rect class="cls-1" x="29.12" y="18.39" width="1.41" height="1.41"/><rect class="cls-1" x="31.61" y="21.14" width="1.41" height="1.41"/><rect class="cls-1" x="21.29" y="9.64" width="1.41" height="1.41"/><rect class="cls-1" x="33.9" y="23.81" width="1.41" height="1.41"/><rect class="cls-1" x="23.84" y="12.62" width="1.41" height="1.41"/><rect class="cls-1" x="40.65" y="33.77" width="1.41" height="1.41"/><rect class="cls-1" x="19.27" y="7.25" width="1.41" height="1"/><rect class="cls-1" x="41.76" y="36.07" width="1.41" height="1.41"/><rect class="cls-1" x="37.76" y="28.94" width="1.41" height="1.41"/><rect class="cls-1" x="39.32" y="31.4" width="1.41" height="1.41"/><rect class="cls-1" x="35.95" y="26.41" width="1.41" height="1.41"/><rect class="cls-1" x="45.47" y="86.77" width="1.41" height="1.41"/><rect class="cls-1" x="43.55" y="72.24" width="1.41" height="1.41"/><rect class="cls-1" x="43.55" y="86.77" width="1.41" height="1.41"/><rect class="cls-1" x="43.55" y="75.87" width="1.41" height="1.41"/><rect class="cls-1" x="42.67" y="38.28" width="1.41" height="1.41"/><rect class="cls-1" x="43.55" y="77.69" width="1.41" height="1.41"/><rect class="cls-1" x="43.55" y="68.61" width="1.41" height="1.41"/><rect class="cls-1" x="43.55" y="74.06" width="1.41" height="1.41"/><rect class="cls-1" x="43.55" y="88.58" width="1.41" height="1.41"/><rect class="cls-1" x="43.55" y="84.95" width="1.41" height="1.41"/><rect class="cls-1" x="43.55" y="83.14" width="1.41" height="1.41"/><rect class="cls-1" x="43.55" y="81.32" width="1.41" height="1.41"/><rect class="cls-1" x="43.55" y="79.51" width="1.41" height="1.41"/><rect class="cls-1" x="43.41" y="40.43" width="1.41" height="1.41"/><rect class="cls-1" x="45.47" y="70.43" width="1.41" height="1.41"/><rect class="cls-1" x="45.47" y="68.61" width="1.41" height="1.41"/><rect class="cls-1" x="45.47" y="72.24" width="1.41" height="1.41"/><rect class="cls-1" x="45.47" y="66.8" width="1.41" height="1.41"/><rect class="cls-1" x="45.47" y="64.98" width="1.41" height="1.41"/><rect class="cls-1" x="45.47" y="74.06" width="1.41" height="1.41"/><rect class="cls-1" x="45.47" y="81.32" width="1.41" height="1.41"/><rect class="cls-1" x="45.47" y="75.87" width="1.41" height="1.41"/><rect class="cls-1" x="45.47" y="83.14" width="1.41" height="1.41"/><rect class="cls-1" x="45.47" y="63.16" width="1.41" height="1.41"/><rect class="cls-1" x="41.09" y="48.39" width="1.41" height="1.41"/><rect class="cls-1" x="45.47" y="79.51" width="1.41" height="1.41"/><rect class="cls-1" x="45.21" y="50.33" width="1.41" height="1.41"/><rect class="cls-1" x="44.79" y="46.51" width="1.41" height="1.41"/><rect class="cls-1" x="45.47" y="61.35" width="1.41" height="1.41"/><rect class="cls-1" x="43.55" y="66.8" width="1.41" height="1.41"/><rect class="cls-1" x="43.99" y="42.51" width="1.41" height="1.41"/><rect class="cls-1" x="44.44" y="44.54" width="1.41" height="1.41"/><rect class="cls-1" x="45.04" y="48.44" width="1.41" height="1.41"/><rect class="cls-1" x="45.33" y="52.2" width="1.41" height="1.41"/><rect class="cls-1" x="45.46" y="57.71" width="1.41" height="1.41"/><rect class="cls-1" x="45.47" y="59.53" width="1.41" height="1.41"/><rect class="cls-1" x="45.44" y="55.89" width="1.41" height="1.41"/><rect class="cls-1" x="45.4" y="54.05" width="1.41" height="1.41"/><rect class="cls-1" x="45.47" y="77.69" width="1.41" height="1.41"/><rect class="cls-1" x="41.64" y="77.69" width="1.41" height="1.41"/><rect class="cls-1" x="41.64" y="79.51" width="1.41" height="1.41"/><rect class="cls-1" x="41.64" y="75.87" width="1.41" height="1.41"/><rect class="cls-1" x="41.64" y="72.24" width="1.41" height="1.41"/><rect class="cls-1" x="41.64" y="74.06" width="1.41" height="1.41"/><rect class="cls-1" x="41.64" y="81.32" width="1.41" height="1.41"/><rect class="cls-1" x="15.61" y="7.41" width="1.41" height="1.41"/><rect class="cls-1" x="43.55" y="64.98" width="1.41" height="1.41"/><rect class="cls-1" x="41.64" y="83.14" width="1.41" height="1.41"/><rect class="cls-1" x="41.64" y="86.77" width="1.41" height="1.41"/><rect class="cls-1" x="41.64" y="70.43" width="1.41" height="1.41"/><rect class="cls-1" x="41.64" y="88.58" width="1.41" height="1.41"/><rect class="cls-1" x="41.64" y="84.95" width="1.41" height="1.41"/><rect class="cls-1" x="41.64" y="68.61" width="1.41" height="1.41"/><rect class="cls-1" x="41.62" y="57.71" width="1.41" height="1.41"/><rect class="cls-1" x="41.54" y="54.04" width="1.41" height="1.41"/><rect class="cls-1" x="41.3" y="50.3" width="1.41" height="1.41"/><rect class="cls-1" x="41.45" y="52.18" width="1.41" height="1.41"/><rect class="cls-1" x="41.59" y="55.88" width="1.41" height="1.41"/><rect class="cls-1" x="41.64" y="64.98" width="1.41" height="1.41"/><rect class="cls-1" x="41.64" y="66.8" width="1.41" height="1.41"/><rect class="cls-1" x="41.64" y="63.16" width="1.41" height="1.41"/><rect class="cls-1" x="41.64" y="61.35" width="1.41" height="1.41"/><rect class="cls-1" x="41.63" y="59.53" width="1.41" height="1.41"/><rect class="cls-1" x="12.99" y="4.66" width="1.41" height="1"/><rect class="cls-1" x="43.25" y="50.32" width="1.41" height="1.41"/><rect class="cls-1" x="43.38" y="52.19" width="1.41" height="1.41"/><rect class="cls-1" x="43.06" y="48.41" width="1.41" height="1.41"/><rect class="cls-1" x="43.47" y="54.05" width="1.41" height="1.41"/><rect class="cls-1" x="42.78" y="46.47" width="1.41" height="1.41"/><rect class="cls-1" x="42.4" y="44.48" width="1.41" height="1.41"/><rect class="cls-1" x="18.79" y="10.8" width="1.41" height="1.41"/><rect class="cls-1" x="43.55" y="61.35" width="1.41" height="1.41"/><rect class="cls-1" x="43.55" y="63.16" width="1.41" height="1.41"/><rect class="cls-1" x="43.54" y="57.71" width="1.41" height="1.41"/><rect class="cls-1" x="43.52" y="55.88" width="1.41" height="1.41"/><rect class="cls-1" x="43.55" y="59.53" width="1.41" height="1.41"/><rect class="cls-1" x="41.9" y="42.44" width="1.41" height="1.41"/><rect class="cls-1" x="27.99" y="20.31" width="1.41" height="1.41"/><rect class="cls-1" x="30.61" y="23.17" width="1.41" height="1.41"/><rect class="cls-1" x="25.1" y="17.3" width="1.41" height="1.41"/><rect class="cls-1" x="41.26" y="40.33" width="1.41" height="1.41"/><rect class="cls-1" x="22" y="14.13" width="1.41" height="1.41"/><rect class="cls-1" x="32.95" y="25.92" width="1.41" height="1.41"/><rect class="cls-1" x="40.44" y="38.15" width="1.41" height="1.41"/><rect class="cls-1" x="39.43" y="35.88" width="1.41" height="1.41"/><rect class="cls-1" x="36.73" y="31.09" width="1.41" height="1.41"/><rect class="cls-1" x="34.98" y="28.55" width="1.41" height="1.41"/><rect class="cls-1" x="38.2" y="33.53" width="1.41" height="1.41"/><path class="cls-1" d="M153.8,164.16V141.72H157v22.44Zm0-19.43v-3h14.86v3Zm0,9.7v-3h12v3Zm0,9.73v-3h14.86v3Z" transform="translate(-93.53 -92.1)"/><path class="cls-1" d="M178.38,156.67l-7.75-14.95h3.48l5.47,11.22h.28l5.47-11.22h3.48l-7.75,14.95Zm-.24,7.49V153.1h3.16v11.06Z" transform="translate(-93.53 -92.1)"/></svg>